<svg width="20" height="20" viewBox="0 0 20 20" fill="none" xmlns="http://www.w3.org/2000/svg">
<g clip-path="url(#clip0_634_21243)">
<path fill-rule="evenodd" clip-rule="evenodd" d="M10.061 4.16696L17.2938 11.4064C17.6276 10.9552 17.9352 10.485 18.215 9.99816C18.124 9.84106 18.0036 9.64115 17.8547 9.41046C17.4705 8.81559 16.9015 8.02452 16.1629 7.23664C14.6822 5.6572 12.6166 4.18999 10.061 4.16696ZM19.1667 10L19.912 9.62734C20.0329 9.86911 20.029 10.1545 19.9016 10.3929C19.3684 11.3904 18.7325 12.3295 18.0043 13.1949C17.854 13.3736 17.6355 13.481 17.4023 13.4909C17.169 13.5009 16.9422 13.4125 16.7771 13.2473L7.66047 4.12234C7.44674 3.90841 7.36567 3.59549 7.44865 3.30469C7.53163 3.0139 7.76563 2.79087 8.06007 2.72195C8.69626 2.57304 9.34759 2.49856 10.001 2.50002C10.0013 2.50002 10.0016 2.50002 10.002 2.50002L10 3.33335V2.50002C10.0003 2.50002 10.0006 2.50002 10.001 2.50002C13.2501 2.50039 15.7464 4.35556 17.3788 6.09674C18.2026 6.97552 18.8316 7.85111 19.2547 8.50625C19.4668 8.83462 19.6285 9.10972 19.7384 9.30501C19.7933 9.40271 19.8354 9.4806 19.8644 9.53539C19.8789 9.56278 19.8901 9.58442 19.8981 9.59987L19.9075 9.61839L19.9104 9.62408L19.912 9.62734C19.9122 9.62765 19.912 9.62734 19.1667 10ZM4.54425 4.38771C4.87603 4.13436 5.34407 4.16558 5.63926 4.46077L8.81932 7.64083C8.82126 7.64275 8.82319 7.64468 8.82511 7.64662L12.3534 11.1749C12.3553 11.1768 12.3573 11.1788 12.3592 11.1807L15.5393 14.3608C15.7093 14.5308 15.7976 14.766 15.7815 15.0059C15.7654 15.2458 15.6464 15.467 15.4552 15.6128C13.8892 16.8064 11.9824 17.4677 10.0136 17.4999L10 17.5C6.75041 17.5 4.25373 15.6447 2.62122 13.9033C1.79736 13.0245 1.16839 12.1489 0.74528 11.4938C0.533208 11.1654 0.371493 10.8903 0.261643 10.695C0.206686 10.5973 0.164617 10.5194 0.135628 10.4647C0.121131 10.4373 0.109896 10.4156 0.101948 10.4002L0.0924917 10.3817L0.0896159 10.376L0.0886418 10.374C0.0884887 10.3737 0.0879774 10.3727 0.833333 10L0.0879774 10.3727C-0.0331156 10.1305 -0.0289912 9.84459 0.099037 9.606C1.19179 7.56954 2.70742 5.79033 4.54425 4.38771ZM1.78548 10.0027C1.87637 10.1596 1.9966 10.3593 2.14535 10.5896C2.52953 11.1844 3.09847 11.9755 3.83711 12.7634C5.32829 14.354 7.4126 15.8308 9.9932 15.8334C11.2811 15.8111 12.5364 15.4604 13.6428 14.8214L11.7081 12.8867C11.5758 12.9696 11.4376 13.0433 11.2943 13.1071C10.8854 13.2893 10.444 13.3873 9.99644 13.3952C9.54887 13.4031 9.1043 13.3208 8.68924 13.1531C8.27418 12.9855 7.89714 12.7359 7.58062 12.4194C7.26409 12.1029 7.01456 11.7258 6.84691 11.3108C6.67926 10.8957 6.59693 10.4511 6.60482 10.0036C6.61272 9.55601 6.71069 9.11462 6.89287 8.70573C6.95671 8.56245 7.03044 8.42419 7.11337 8.2919L4.98925 6.16778C3.70859 7.25116 2.62446 8.54849 1.78548 10.0027ZM8.35658 9.53511C8.3031 9.69547 8.27422 9.86334 8.27123 10.033C8.26728 10.2568 8.30845 10.4791 8.39227 10.6866C8.4761 10.8941 8.60086 11.0826 8.75913 11.2409C8.91739 11.3992 9.10591 11.5239 9.31344 11.6077C9.52097 11.6916 9.74326 11.7327 9.96704 11.7288C10.1367 11.7258 10.3046 11.6969 10.4649 11.6434L8.35658 9.53511Z" fill="#999999"/>
<path fill-rule="evenodd" clip-rule="evenodd" d="M0.244078 0.244078C0.569515 -0.0813592 1.09715 -0.0813592 1.42259 0.244078L19.7559 18.5774C20.0814 18.9028 20.0814 19.4305 19.7559 19.7559C19.4305 20.0814 18.9028 20.0814 18.5774 19.7559L0.244078 1.42259C-0.0813592 1.09715 -0.0813592 0.569515 0.244078 0.244078Z" fill="#999999"/>
</g>
<defs>
<clipPath id="clip0_634_21243">
<rect width="20" height="20" fill="white"/>
</clipPath>
</defs>
</svg>
