<svg width="152" height="45" viewBox="0 0 152 45" fill="none" xmlns="http://www.w3.org/2000/svg">
<path fill-rule="evenodd" clip-rule="evenodd" d="M69.7217 23.0888C69.7217 24.7023 69.3764 26.1495 68.6945 27.3899C68.019 28.6193 67.0691 29.5925 65.8699 30.281C64.6644 30.9734 63.24 31.3245 61.6365 31.3245C60.031 31.3245 58.5991 30.9725 57.3783 30.2783C56.1677 29.5908 55.2118 28.6193 54.5364 27.3899C53.8553 26.1495 53.5091 24.7023 53.5091 23.0888C53.5091 21.504 53.8553 20.0711 54.5357 18.8307C55.2118 17.602 56.1677 16.6298 57.3793 15.9413C58.6 15.2471 60.0327 14.8951 61.6365 14.8951C63.2391 14.8951 64.6634 15.2465 65.8699 15.9389C67.0681 16.6288 68.019 17.602 68.6945 18.8307C69.3764 20.0711 69.7217 21.504 69.7217 23.0888ZM68.0677 12.4454C66.2563 11.3939 64.1775 10.8613 61.8877 10.8613C59.7495 10.8613 57.7922 11.3251 56.0706 12.2403C55.0375 12.7899 54.1234 13.4781 53.3366 14.296L53.1691 11.4076H49.4875V41.1033H53.593V32.155C54.3587 32.8911 55.2301 33.5164 56.2012 34.0239C57.8927 34.9098 59.8065 35.3586 61.8877 35.3586C64.1775 35.3586 66.2563 34.8257 68.0677 33.7744C69.8851 32.7205 71.3167 31.2398 72.3231 29.3717C73.321 27.5185 73.8271 25.405 73.8271 23.0888C73.8271 20.7719 73.321 18.6651 72.3214 16.8254C71.3161 14.9742 69.8851 13.5 68.0677 12.4454Z" fill="#111111"/>
<path fill-rule="evenodd" clip-rule="evenodd" d="M95.4936 27.3893C95.3555 27.6405 95.1979 27.8733 95.0372 28.1037C94.4088 28.996 93.6146 29.7297 92.651 30.2786C91.4302 30.9728 89.9974 31.3249 88.3938 31.3249C86.791 31.3249 85.3666 30.9735 84.1601 30.2803C82.9612 29.5911 82.011 28.618 81.3358 27.3893C80.657 26.1538 80.3129 24.7143 80.3093 23.1092C80.3126 21.505 80.657 20.0645 81.3358 18.83C82.011 17.6013 82.9612 16.6281 84.1601 15.939C85.3666 15.2458 86.791 14.8944 88.3938 14.8944C89.9974 14.8944 91.4302 15.2465 92.651 15.9407C93.6146 16.4885 94.4088 17.2232 95.0372 18.1156C95.1979 18.3451 95.3555 18.5787 95.4936 18.83C96.1725 20.0645 96.5159 21.505 96.5192 23.1092C96.5158 24.7143 96.1725 26.1538 95.4936 27.3893ZM96.8612 11.4069L96.717 13.8834L96.4463 14.0592C95.7157 13.3472 94.8888 12.7347 93.9596 12.2397C92.6583 11.5482 91.2224 11.117 89.6756 10.9464C89.1747 10.89 88.6643 10.8613 88.1426 10.8613C85.8526 10.8613 83.7739 11.3933 81.9625 12.4448C80.1452 13.4994 78.7143 14.9735 77.7087 16.8247C76.7093 18.6652 76.2031 20.7713 76.2031 23.0882C76.2031 23.0957 76.2039 23.1025 76.2039 23.1092C76.2039 23.1167 76.2031 23.1235 76.2031 23.1301C76.2031 25.4471 76.7093 27.5541 77.7087 29.3944C78.7143 31.2458 80.1452 32.7199 81.9625 33.7745C83.7739 34.8258 85.8526 35.3579 88.1426 35.3579C88.6643 35.3579 89.1747 35.3293 89.6756 35.2728C91.2224 35.1033 92.6583 34.6705 93.9596 33.9796C94.8888 33.4846 95.7157 32.8719 96.4463 32.1601L96.717 32.3359L96.8612 34.8124H100.542V11.4069H96.8612Z" fill="#111111"/>
<path fill-rule="evenodd" clip-rule="evenodd" d="M146.952 27.3893C146.814 27.6405 146.655 27.8733 146.494 28.1037C145.867 28.996 145.072 29.7297 144.109 30.2786C142.887 30.9728 141.455 31.3249 139.851 31.3249C138.249 31.3249 136.825 30.9735 135.618 30.2803C134.419 29.5911 133.468 28.618 132.794 27.3893C132.114 26.1538 131.771 24.7143 131.767 23.1092C131.771 21.505 132.114 20.0645 132.794 18.83C133.468 17.6013 134.419 16.6281 135.618 15.939C136.825 15.2458 138.249 14.8944 139.851 14.8944C141.455 14.8944 142.887 15.2465 144.109 15.9407C145.072 16.4885 145.867 17.2232 146.494 18.1156C146.655 18.3451 146.814 18.5787 146.952 18.83C147.63 20.0645 147.974 21.505 147.977 23.1092C147.974 24.7143 147.63 26.1538 146.952 27.3893ZM148.319 11.4069L148.175 13.8834L147.904 14.0592C147.174 13.3472 146.347 12.7347 145.418 12.2397C144.116 11.5482 142.68 11.117 141.134 10.9464C140.633 10.89 140.122 10.8613 139.6 10.8613C137.311 10.8613 135.232 11.3933 133.42 12.4448C131.603 13.4994 130.172 14.9735 129.166 16.8247C128.167 18.6652 127.661 20.7713 127.661 23.0882C127.661 23.0957 127.662 23.1025 127.662 23.1092C127.662 23.1167 127.661 23.1235 127.661 23.1301C127.661 25.4471 128.167 27.5541 129.166 29.3944C130.172 31.2458 131.603 32.7199 133.42 33.7745C135.232 34.8258 137.311 35.3579 139.6 35.3579C140.122 35.3579 140.633 35.3293 141.134 35.2728C142.68 35.1033 144.116 34.6705 145.418 33.9796C146.347 33.4846 147.174 32.8719 147.904 32.1601L148.175 32.3359L148.319 34.8124H152V11.4069H148.319Z" fill="#111111"/>
<path fill-rule="evenodd" clip-rule="evenodd" d="M115.415 10.8613C113.518 10.8613 111.767 11.3075 110.207 12.1882C109.351 12.6713 108.587 13.279 107.922 14.0018L107.792 11.4066H104.104V34.8121H108.21V22.7106C108.21 21.1417 108.511 19.75 109.105 18.5725C109.686 17.4171 110.507 16.5044 111.542 15.8616C112.575 15.2203 113.78 14.8951 115.122 14.8951C117.035 14.8951 118.499 15.5145 119.6 16.7892C120.715 18.0827 121.28 19.8913 121.28 22.1643V34.8121H125.386V21.9542C125.386 18.6196 124.49 15.9161 122.725 13.9177C120.933 11.89 118.473 10.8613 115.415 10.8613Z" fill="#111111"/>
<path fill-rule="evenodd" clip-rule="evenodd" d="M34.4374 35.9889C34.4374 38.6521 32.3075 40.8119 29.6793 40.8119H8.32086C5.69244 40.8119 3.56254 38.6521 3.56254 35.9889V25.3917C3.56254 23.6739 4.46406 22.0857 5.92946 21.2217L14.2251 16.3324C17.1768 14.5928 20.8224 14.5928 23.7741 16.3324L32.0705 21.2217C33.5359 22.0857 34.4374 23.6739 34.4374 25.3917V35.9889ZM30.8749 7.5H7.12533C3.18986 7.5 0 10.7339 0 14.7221V37.2C0 41.1892 3.18986 44.4231 7.12533 44.4231H30.8749C34.8103 44.4231 37.9999 41.1892 37.9999 37.2V14.7221C37.9999 10.7339 34.8103 7.5 30.8749 7.5Z" fill="#FB6B56"/>
</svg>
