<svg width="132" height="39" viewBox="0 0 132 39" fill="none" xmlns="http://www.w3.org/2000/svg">
<path fill-rule="evenodd" clip-rule="evenodd" d="M60.5479 20.0103C60.5479 21.4086 60.2479 22.6628 59.6558 23.7379C59.0692 24.8033 58.2443 25.6468 57.2028 26.2434C56.156 26.8436 54.919 27.1479 53.5265 27.1479C52.1322 27.1479 50.8887 26.8428 49.8286 26.2412C48.7773 25.6453 47.9472 24.8033 47.3606 23.7379C46.7691 22.6628 46.4685 21.4086 46.4685 20.0103C46.4685 18.6367 46.7691 17.3949 47.36 16.3199C47.9472 15.255 48.7773 14.4124 49.8294 13.8157C50.8895 13.2141 52.1337 12.909 53.5265 12.909C54.9182 12.909 56.1551 13.2135 57.2028 13.8137C58.2434 14.4116 59.0692 15.255 59.6558 16.3199C60.2479 17.3949 60.5479 18.6367 60.5479 20.0103ZM59.1115 10.786C57.5384 9.87469 55.7331 9.41309 53.7447 9.41309C51.8878 9.41309 50.188 9.81505 48.693 10.6082C47.7957 11.0845 47.0019 11.681 46.3186 12.3898L46.1732 9.8865H42.9761V35.6228H46.5414V27.8676C47.2063 28.5055 47.963 29.0475 48.8064 29.4873C50.2753 30.2551 51.9373 30.644 53.7447 30.644C55.7331 30.644 57.5384 30.1822 59.1115 29.2711C60.6897 28.3577 61.933 27.0744 62.8069 25.4554C63.6736 23.8493 64.1131 22.0176 64.1131 20.0103C64.1131 18.0023 63.6736 16.1764 62.8055 14.5819C61.9324 12.9776 60.6897 11.7 59.1115 10.786Z" fill="white"/>
<path fill-rule="evenodd" clip-rule="evenodd" d="M82.9288 23.7373C82.8088 23.9551 82.672 24.1568 82.5324 24.3565C81.9867 25.1298 81.297 25.7657 80.4602 26.2414C79.4 26.843 78.1558 27.1482 76.7632 27.1482C75.3712 27.1482 74.1343 26.8437 73.0865 26.2429C72.0454 25.6455 71.2202 24.8022 70.6338 23.7373C70.0443 22.6666 69.7455 21.419 69.7424 20.0279C69.7453 18.6376 70.0443 17.3892 70.6338 16.3193C71.2202 15.2544 72.0454 14.411 73.0865 13.8137C74.1343 13.2129 75.3712 12.9084 76.7632 12.9084C78.1558 12.9084 79.4 13.2135 80.4602 13.8152C81.297 14.29 81.9867 14.9267 82.5324 15.7001C82.672 15.899 82.8088 16.1015 82.9288 16.3193C83.5183 17.3892 83.8165 18.6376 83.8194 20.0279C83.8165 21.419 83.5183 22.6666 82.9288 23.7373ZM84.1164 9.88592L83.9912 12.0322L83.7561 12.1846C83.1217 11.5675 82.4035 11.0367 81.5966 10.6077C80.4666 10.0084 79.2196 9.63464 77.8763 9.48679C77.4413 9.43792 76.9981 9.41309 76.545 9.41309C74.5563 9.41309 72.7512 9.87411 71.1781 10.7854C69.5999 11.6994 68.3572 12.977 67.484 14.5814C66.6161 16.1764 66.1765 18.0017 66.1765 20.0097C66.1765 20.0162 66.1772 20.0221 66.1772 20.0279C66.1772 20.0345 66.1765 20.0403 66.1765 20.046C66.1765 22.0541 66.6161 23.8801 67.484 25.475C68.3572 27.0796 69.5999 28.3572 71.1781 29.2712C72.7512 30.1823 74.5563 30.6434 76.545 30.6434C76.9981 30.6434 77.4413 30.6187 77.8763 30.5697C79.2196 30.4228 80.4666 30.0477 81.5966 29.4489C82.4035 29.0199 83.1217 28.4889 83.7561 27.872L83.9912 28.0243L84.1164 30.1707H87.3127V9.88592H84.1164Z" fill="white"/>
<path fill-rule="evenodd" clip-rule="evenodd" d="M127.616 23.7373C127.496 23.9551 127.358 24.1568 127.219 24.3565C126.674 25.1298 125.984 25.7657 125.147 26.2414C124.087 26.843 122.843 27.1482 121.45 27.1482C120.058 27.1482 118.822 26.8437 117.774 26.2429C116.732 25.6455 115.907 24.8022 115.321 23.7373C114.731 22.6666 114.433 21.419 114.43 20.0279C114.433 18.6376 114.731 17.3892 115.321 16.3193C115.907 15.2544 116.732 14.411 117.774 13.8137C118.822 13.2129 120.058 12.9084 121.45 12.9084C122.843 12.9084 124.087 13.2135 125.147 13.8152C125.984 14.29 126.674 14.9267 127.219 15.7001C127.358 15.899 127.496 16.1015 127.616 16.3193C128.205 17.3892 128.504 18.6376 128.507 20.0279C128.504 21.419 128.205 22.6666 127.616 23.7373ZM128.803 9.88592L128.678 12.0322L128.443 12.1846C127.809 11.5675 127.091 11.0367 126.284 10.6077C125.154 10.0084 123.906 9.63464 122.564 9.48679C122.128 9.43792 121.685 9.41309 121.232 9.41309C119.244 9.41309 117.438 9.87411 115.865 10.7854C114.287 11.6994 113.044 12.977 112.17 14.5814C111.303 16.1764 110.864 18.0017 110.864 20.0097C110.864 20.0162 110.864 20.0221 110.864 20.0279C110.864 20.0345 110.864 20.0403 110.864 20.046C110.864 22.0541 111.303 23.8801 112.17 25.475C113.044 27.0796 114.287 28.3572 115.865 29.2712C117.438 30.1823 119.244 30.6434 121.232 30.6434C121.685 30.6434 122.128 30.6187 122.564 30.5697C123.906 30.4228 125.154 30.0477 126.284 29.4489C127.091 29.0199 127.809 28.4889 128.443 27.872L128.678 28.0243L128.803 30.1707H132V9.88592H128.803Z" fill="white"/>
<path fill-rule="evenodd" clip-rule="evenodd" d="M100.229 9.41309C98.5819 9.41309 97.0606 9.79978 95.7065 10.563C94.9628 10.9817 94.2993 11.5084 93.7215 12.1348L93.6088 9.88563H90.4065V30.1704H93.9718V19.6825C93.9718 18.3227 94.2337 17.1166 94.7489 16.0961C95.2538 15.0948 95.967 14.3038 96.8655 13.7466C97.7627 13.1908 98.809 12.909 99.9747 12.909C101.636 12.909 102.908 13.4458 103.863 14.5505C104.831 15.6716 105.323 17.239 105.323 19.209V30.1704H108.888V19.0269C108.888 16.1369 108.11 13.7939 106.577 12.0619C105.021 10.3046 102.884 9.41309 100.229 9.41309Z" fill="white"/>
<path fill-rule="evenodd" clip-rule="evenodd" d="M29.9062 31.1904C29.9062 33.4985 28.0565 35.3703 25.7742 35.3703H7.22601C4.94343 35.3703 3.09378 33.4985 3.09378 31.1904V22.0061C3.09378 20.5174 3.87669 19.141 5.14927 18.3922L12.3534 14.1548C14.9167 12.6471 18.0826 12.6471 20.6459 14.1548L27.8507 18.3922C29.1233 19.141 29.9062 20.5174 29.9062 22.0061V31.1904ZM26.8124 6.5H6.18778C2.77014 6.5 0 9.30269 0 12.7591V32.24C0 35.6973 2.77014 38.5 6.18778 38.5H26.8124C30.23 38.5 33 35.6973 33 32.24V12.7591C33 9.30269 30.23 6.5 26.8124 6.5Z" fill="#FB6B56"/>
</svg>
