<svg width="32" height="32" viewBox="0 0 32 32" fill="none" xmlns="http://www.w3.org/2000/svg">
<path d="M32 16C32 24.8366 24.8366 32 16 32C7.16344 32 0 24.8366 0 16C0 7.16344 7.16344 0 16 0C24.8366 0 32 7.16344 32 16ZM1.36134 16C1.36134 24.0847 7.91529 30.6387 16 30.6387C24.0847 30.6387 30.6387 24.0847 30.6387 16C30.6387 7.91529 24.0847 1.36134 16 1.36134C7.91529 1.36134 1.36134 7.91529 1.36134 16Z" fill="#F2F2F2"/>
<path d="M18.0234 0.128459C20.9505 0.50162 23.7173 1.67695 26.0181 3.52451C28.3189 5.37207 30.0639 7.81989 31.0603 10.5973C32.0566 13.3748 32.2655 16.3737 31.6639 19.2624C31.0622 22.1512 29.6734 24.8173 27.651 26.966L26.7011 26.072C28.5586 24.0984 29.8342 21.6497 30.3868 18.9964C30.9394 16.3432 30.7475 13.5888 29.8324 11.0378C28.9173 8.48682 27.3145 6.23857 25.2013 4.54164C23.0881 2.84471 20.5469 1.7652 17.8584 1.42247L18.0234 0.128459Z" fill="#FB6B56"/>
</svg>
