<svg width="20" height="20" viewBox="0 0 20 20" fill="none" xmlns="http://www.w3.org/2000/svg">
<path fill-rule="evenodd" clip-rule="evenodd" d="M1.66602 4.99996C1.66602 4.53972 2.03911 4.16663 2.49935 4.16663H17.4993C17.9596 4.16663 18.3327 4.53972 18.3327 4.99996C18.3327 5.4602 17.9596 5.83329 17.4993 5.83329H2.49935C2.03911 5.83329 1.66602 5.4602 1.66602 4.99996Z" fill="#FF3B30"/>
<path fill-rule="evenodd" clip-rule="evenodd" d="M8.33398 2.50004C8.11297 2.50004 7.90101 2.58784 7.74473 2.74412C7.58845 2.9004 7.50065 3.11236 7.50065 3.33337V4.16671H12.5007V3.33337C12.5007 3.11236 12.4129 2.9004 12.2566 2.74412C12.1003 2.58784 11.8883 2.50004 11.6673 2.50004H8.33398ZM14.1673 4.16671V3.33337C14.1673 2.67033 13.9039 2.03445 13.4351 1.56561C12.9662 1.09677 12.3304 0.833374 11.6673 0.833374H8.33398C7.67094 0.833374 7.03506 1.09677 6.56622 1.56561C6.09738 2.03445 5.83398 2.67033 5.83398 3.33337V4.16671H4.16732C3.70708 4.16671 3.33398 4.5398 3.33398 5.00004V16.6667C3.33398 17.3297 3.59738 17.9656 4.06622 18.4345C4.53506 18.9033 5.17094 19.1667 5.83398 19.1667H14.1673C14.8304 19.1667 15.4662 18.9033 15.9351 18.4345C16.4039 17.9656 16.6673 17.3297 16.6673 16.6667V5.00004C16.6673 4.5398 16.2942 4.16671 15.834 4.16671H14.1673ZM5.00065 5.83337V16.6667C5.00065 16.8877 5.08845 17.0997 5.24473 17.256C5.40101 17.4122 5.61297 17.5 5.83398 17.5H14.1673C14.3883 17.5 14.6003 17.4122 14.7566 17.256C14.9129 17.0997 15.0007 16.8877 15.0007 16.6667V5.83337H5.00065Z" fill="#FF3B30"/>
<path fill-rule="evenodd" clip-rule="evenodd" d="M8.33333 8.33337C8.79357 8.33337 9.16667 8.70647 9.16667 9.16671V14.1667C9.16667 14.6269 8.79357 15 8.33333 15C7.8731 15 7.5 14.6269 7.5 14.1667V9.16671C7.5 8.70647 7.8731 8.33337 8.33333 8.33337Z" fill="#FF3B30"/>
<path fill-rule="evenodd" clip-rule="evenodd" d="M11.6673 8.33337C12.1276 8.33337 12.5007 8.70647 12.5007 9.16671V14.1667C12.5007 14.6269 12.1276 15 11.6673 15C11.2071 15 10.834 14.6269 10.834 14.1667V9.16671C10.834 8.70647 11.2071 8.33337 11.6673 8.33337Z" fill="#FF3B30"/>
</svg>
