<svg width="17" height="17" viewBox="0 0 17 17" fill="none" xmlns="http://www.w3.org/2000/svg">
  <path fill-rule="evenodd" clip-rule="evenodd" d="M3.83333 3.66699C3.3731 3.66699 3 4.04009 3 4.50033V13.8337C3 14.2939 3.3731 14.667 3.83333 14.667H13.1667C13.6269 14.667 14 14.2939 14 13.8337V4.50033C14 4.04009 13.6269 3.66699 13.1667 3.66699H3.83333ZM2 4.50033C2 3.4878 2.82081 2.66699 3.83333 2.66699H13.1667C14.1792 2.66699 15 3.4878 15 4.50033V13.8337C15 14.8462 14.1792 15.667 13.1667 15.667H3.83333C2.82081 15.667 2 14.8462 2 13.8337V4.50033Z" fill="#333333"/>
  <path fill-rule="evenodd" clip-rule="evenodd" d="M11.1667 1.33301C11.4429 1.33301 11.6667 1.55687 11.6667 1.83301V4.49967C11.6667 4.77582 11.4429 4.99967 11.1667 4.99967C10.8906 4.99967 10.6667 4.77582 10.6667 4.49967V1.83301C10.6667 1.55687 10.8906 1.33301 11.1667 1.33301Z" fill="#333333"/>
  <path fill-rule="evenodd" clip-rule="evenodd" d="M5.83325 1.33301C6.10939 1.33301 6.33325 1.55687 6.33325 1.83301V4.49967C6.33325 4.77582 6.10939 4.99967 5.83325 4.99967C5.55711 4.99967 5.33325 4.77582 5.33325 4.49967V1.83301C5.33325 1.55687 5.55711 1.33301 5.83325 1.33301Z" fill="#333333"/>
  <path fill-rule="evenodd" clip-rule="evenodd" d="M2 7.16699C2 6.89085 2.22386 6.66699 2.5 6.66699H14.5C14.7761 6.66699 15 6.89085 15 7.16699C15 7.44313 14.7761 7.66699 14.5 7.66699H2.5C2.22386 7.66699 2 7.44313 2 7.16699Z" fill="#333333"/>
</svg>
