<svg width="48" height="48" viewBox="0 0 48 48" fill="none" xmlns="http://www.w3.org/2000/svg">
  <rect width="48" height="48" rx="12" fill="#FF3B30" fill-opacity="0.12"/>
  <path fill-rule="evenodd" clip-rule="evenodd" d="M15.666 19C15.666 18.5397 16.0391 18.1666 16.4993 18.1666H31.4993C31.9596 18.1666 32.3327 18.5397 32.3327 19C32.3327 19.4602 31.9596 19.8333 31.4993 19.8333H16.4993C16.0391 19.8333 15.666 19.4602 15.666 19Z" fill="#FF3B30"/>
  <path fill-rule="evenodd" clip-rule="evenodd" d="M22.334 16.5C22.113 16.5 21.901 16.5878 21.7447 16.7441C21.5884 16.9004 21.5007 17.1124 21.5007 17.3334V18.1667H26.5007V17.3334C26.5007 17.1124 26.4129 16.9004 26.2566 16.7441C26.1003 16.5878 25.8883 16.5 25.6673 16.5H22.334ZM28.1673 18.1667V17.3334C28.1673 16.6703 27.9039 16.0344 27.4351 15.5656C26.9662 15.0968 26.3304 14.8334 25.6673 14.8334H22.334C21.6709 14.8334 21.0351 15.0968 20.5662 15.5656C20.0974 16.0344 19.834 16.6703 19.834 17.3334V18.1667H18.1673C17.7071 18.1667 17.334 18.5398 17.334 19V30.6667C17.334 31.3297 17.5974 31.9656 18.0662 32.4345C18.5351 32.9033 19.1709 33.1667 19.834 33.1667H28.1673C28.8304 33.1667 29.4662 32.9033 29.9351 32.4345C30.4039 31.9656 30.6673 31.3297 30.6673 30.6667V19C30.6673 18.5398 30.2942 18.1667 29.834 18.1667H28.1673ZM19.0007 19.8334V30.6667C19.0007 30.8877 19.0884 31.0997 19.2447 31.256C19.401 31.4122 19.613 31.5 19.834 31.5H28.1673C28.3883 31.5 28.6003 31.4122 28.7566 31.256C28.9129 31.0997 29.0007 30.8877 29.0007 30.6667V19.8334H19.0007Z" fill="#FF3B30"/>
  <path fill-rule="evenodd" clip-rule="evenodd" d="M22.3333 22.3334C22.7936 22.3334 23.1667 22.7065 23.1667 23.1667V28.1667C23.1667 28.6269 22.7936 29 22.3333 29C21.8731 29 21.5 28.6269 21.5 28.1667V23.1667C21.5 22.7065 21.8731 22.3334 22.3333 22.3334Z" fill="#FF3B30"/>
  <path fill-rule="evenodd" clip-rule="evenodd" d="M25.6673 22.3334C26.1276 22.3334 26.5007 22.7065 26.5007 23.1667V28.1667C26.5007 28.6269 26.1276 29 25.6673 29C25.2071 29 24.834 28.6269 24.834 28.1667V23.1667C24.834 22.7065 25.2071 22.3334 25.6673 22.3334Z" fill="#FF3B30"/>
</svg>
