<svg width="48" height="48" viewBox="0 0 48 48" fill="none" xmlns="http://www.w3.org/2000/svg">
  <rect width="48" height="48" rx="12" fill="#F4F4F4"/>
  <path fill-rule="evenodd" clip-rule="evenodd" d="M16.5662 17.2322C17.0351 16.7634 17.6709 16.5 18.334 16.5H24.1673C24.6276 16.5 25.0007 16.8731 25.0007 17.3333C25.0007 17.7936 24.6276 18.1667 24.1673 18.1667H18.334C18.113 18.1667 17.901 18.2545 17.7447 18.4107C17.5884 18.567 17.5007 18.779 17.5007 19V30.6667C17.5007 30.8877 17.5884 31.0996 17.7447 31.2559C17.901 31.4122 18.113 31.5 18.334 31.5H30.0007C30.2217 31.5 30.4336 31.4122 30.5899 31.2559C30.7462 31.0996 30.834 30.8877 30.834 30.6667V24.8333C30.834 24.3731 31.2071 24 31.6673 24C32.1276 24 32.5007 24.3731 32.5007 24.8333V30.6667C32.5007 31.3297 32.2373 31.9656 31.7684 32.4344C31.2996 32.9033 30.6637 33.1667 30.0007 33.1667H18.334C17.6709 33.1667 17.0351 32.9033 16.5662 32.4344C16.0974 31.9656 15.834 31.3297 15.834 30.6667V19C15.834 18.337 16.0974 17.7011 16.5662 17.2322Z" fill="black"/>
  <path fill-rule="evenodd" clip-rule="evenodd" d="M31.6673 16.3988C31.4195 16.3988 31.1818 16.4973 31.0066 16.6725L23.2531 24.426L22.8126 26.188L24.5746 25.7475L32.3281 17.994C32.5033 17.8188 32.6018 17.5811 32.6018 17.3333C32.6018 17.0855 32.5033 16.8478 32.3281 16.6725C32.1528 16.4973 31.9152 16.3988 31.6673 16.3988ZM29.8281 15.494C30.3159 15.0062 30.9775 14.7322 31.6673 14.7322C32.3572 14.7322 33.0188 15.0062 33.5066 15.494C33.9944 15.9818 34.2684 16.6434 34.2684 17.3333C34.2684 18.0231 33.9944 18.6847 33.5066 19.1725L25.5899 27.0892C25.4831 27.196 25.3493 27.2718 25.2028 27.3084L21.8694 28.1417C21.5855 28.2127 21.2851 28.1295 21.0781 27.9225C20.8711 27.7156 20.7879 27.4151 20.8589 27.1312L21.6922 23.7978C21.7288 23.6513 21.8046 23.5175 21.9114 23.4107L29.8281 15.494Z" fill="black"/>
</svg>
