<svg width="20" height="21" viewBox="0 0 20 21" fill="none" xmlns="http://www.w3.org/2000/svg">
  <path fill-rule="evenodd" clip-rule="evenodd" d="M8.3335 10.4997C8.3335 9.5792 9.07969 8.83301 10.0002 8.83301C10.9206 8.83301 11.6668 9.5792 11.6668 10.4997C11.6668 11.4201 10.9206 12.1663 10.0002 12.1663C9.07969 12.1663 8.3335 11.4201 8.3335 10.4997Z" fill="black"/>
  <path fill-rule="evenodd" clip-rule="evenodd" d="M14.1665 10.4997C14.1665 9.5792 14.9127 8.83301 15.8332 8.83301C16.7536 8.83301 17.4998 9.5792 17.4998 10.4997C17.4998 11.4201 16.7536 12.1663 15.8332 12.1663C14.9127 12.1663 14.1665 11.4201 14.1665 10.4997Z" fill="black"/>
  <path fill-rule="evenodd" clip-rule="evenodd" d="M2.5 10.4997C2.5 9.5792 3.24619 8.83301 4.16667 8.83301C5.08714 8.83301 5.83333 9.5792 5.83333 10.4997C5.83333 11.4201 5.08714 12.1663 4.16667 12.1663C3.24619 12.1663 2.5 11.4201 2.5 10.4997Z" fill="black"/>
</svg>
