<svg width="20" height="21" viewBox="0 0 20 21" fill="none" xmlns="http://www.w3.org/2000/svg">
  <path d="M17.6747 13.7417C17.1445 14.9955 16.3153 16.1002 15.2596 16.9595C14.2038 17.8187 12.9537 18.4063 11.6184 18.6707C10.2831 18.9352 8.90337 18.8685 7.59981 18.4766C6.29624 18.0846 5.10854 17.3793 4.14053 16.4223C3.17253 15.4653 2.4537 14.2857 2.04688 12.9867C1.64006 11.6877 1.55765 10.3088 1.80685 8.97059C2.05605 7.63238 2.62926 6.37559 3.47639 5.31009C4.32351 4.24459 5.41875 3.40283 6.66635 2.8584" stroke="white" stroke-width="2" stroke-linecap="round" stroke-linejoin="round"/>
  <path d="M18.3333 10.4998C18.3333 9.40549 18.1178 8.32185 17.699 7.31081C17.2802 6.29976 16.6664 5.3811 15.8926 4.60728C15.1187 3.83346 14.2001 3.21963 13.189 2.80084C12.178 2.38205 11.0943 2.1665 10 2.1665V10.4998H18.3333Z" stroke="white" stroke-width="2" stroke-linecap="round" stroke-linejoin="round"/>
</svg>
