<svg width="0" height="0" class="hidden">

  <symbol fill="none" xmlns="http://www.w3.org/2000/svg" viewBox="0 0 24 24" id="check">
    <circle cx="12" cy="12" r="12" fill="#F4F4F4"></circle>
  </symbol>

  <symbol fill="none" xmlns="http://www.w3.org/2000/svg" viewBox="0 0 24 24" id="check-filled">
    <circle cx="12" cy="12" r="12" fill="#5684FB"></circle>
    <circle cx="12" cy="12" r="5" fill="white"></circle>
  </symbol>

  <symbol fill="none" xmlns="http://www.w3.org/2000/svg" viewBox="0 0 20 21" id="calendar">
    <path d="M15.8333 3.8335H4.16667C3.24619 3.8335 2.5 4.57969 2.5 5.50016V17.1668C2.5 18.0873 3.24619 18.8335 4.16667 18.8335H15.8333C16.7538 18.8335 17.5 18.0873 17.5 17.1668V5.50016C17.5 4.57969 16.7538 3.8335 15.8333 3.8335Z" stroke="white" stroke-width="2" stroke-linecap="round" stroke-linejoin="round"></path>
    <path d="M13.3333 2.1665V5.49984" stroke="white" stroke-width="2" stroke-linecap="round" stroke-linejoin="round"></path>
    <path d="M6.66675 2.1665V5.49984" stroke="white" stroke-width="2" stroke-linecap="round" stroke-linejoin="round"></path>
    <path d="M2.5 8.8335H17.5" stroke="white" stroke-width="2" stroke-linecap="round" stroke-linejoin="round"></path>
  </symbol>

  <symbol fill="none" xmlns="http://www.w3.org/2000/svg" viewBox="0 0 20 21" id="rss">
    <path d="M3.33325 9.6665C5.32238 9.6665 7.23003 10.4567 8.63655 11.8632C10.0431 13.2697 10.8333 15.1774 10.8333 17.1665" stroke="white" stroke-width="2" stroke-linecap="round" stroke-linejoin="round"></path>
    <path d="M3.33325 3.8335C6.86947 3.8335 10.2609 5.23825 12.7613 7.73874C15.2618 10.2392 16.6666 13.6306 16.6666 17.1668" stroke="white" stroke-width="2" stroke-linecap="round" stroke-linejoin="round"></path>
    <path d="M4.16659 17.1667C4.62682 17.1667 4.99992 16.7936 4.99992 16.3333C4.99992 15.8731 4.62682 15.5 4.16659 15.5C3.70635 15.5 3.33325 15.8731 3.33325 16.3333C3.33325 16.7936 3.70635 17.1667 4.16659 17.1667Z" stroke="white" stroke-width="2" stroke-linecap="round" stroke-linejoin="round"></path>
  </symbol>

  <symbol fill="none" xmlns="http://www.w3.org/2000/svg" viewBox="0 0 20 21" id="pie-chart">
    <path d="M17.6747 13.7417C17.1445 14.9955 16.3153 16.1002 15.2596 16.9595C14.2038 17.8187 12.9537 18.4063 11.6184 18.6707C10.2831 18.9352 8.90337 18.8685 7.59981 18.4766C6.29624 18.0846 5.10854 17.3793 4.14053 16.4223C3.17253 15.4653 2.4537 14.2857 2.04688 12.9867C1.64006 11.6877 1.55765 10.3088 1.80685 8.97059C2.05605 7.63238 2.62926 6.37559 3.47639 5.31009C4.32351 4.24459 5.41875 3.40283 6.66635 2.8584" stroke="white" stroke-width="2" stroke-linecap="round" stroke-linejoin="round"></path>
    <path d="M18.3333 10.4998C18.3333 9.40549 18.1178 8.32185 17.699 7.31081C17.2802 6.29976 16.6664 5.3811 15.8926 4.60728C15.1187 3.83346 14.2001 3.21963 13.189 2.80084C12.178 2.38205 11.0943 2.1665 10 2.1665V10.4998H18.3333Z" stroke="white" stroke-width="2" stroke-linecap="round" stroke-linejoin="round"></path>
  </symbol>

  <symbol fill="none" xmlns="http://www.w3.org/2000/svg" viewBox="0 0 20 21" id="user">
    <path d="M16.6668 18V16.3333C16.6668 15.4493 16.3156 14.6014 15.6905 13.9763C15.0654 13.3512 14.2176 13 13.3335 13H6.66683C5.78277 13 4.93493 13.3512 4.30981 13.9763C3.68469 14.6014 3.3335 15.4493 3.3335 16.3333V18" stroke="white" stroke-width="2" stroke-linecap="round" stroke-linejoin="round"></path>
    <path d="M10.0001 9.66667C11.841 9.66667 13.3334 8.17428 13.3334 6.33333C13.3334 4.49238 11.841 3 10.0001 3C8.15913 3 6.66675 4.49238 6.66675 6.33333C6.66675 8.17428 8.15913 9.66667 10.0001 9.66667Z" stroke="white" stroke-width="2" stroke-linecap="round" stroke-linejoin="round"></path>
  </symbol>

  <symbol fill="none" xmlns="http://www.w3.org/2000/svg" viewBox="0 0 20 21" id="more">
    <path fill-rule="evenodd" clip-rule="evenodd" d="M8.3335 10.4997C8.3335 9.5792 9.07969 8.83301 10.0002 8.83301C10.9206 8.83301 11.6668 9.5792 11.6668 10.4997C11.6668 11.4201 10.9206 12.1663 10.0002 12.1663C9.07969 12.1663 8.3335 11.4201 8.3335 10.4997Z" fill="black"></path>
    <path fill-rule="evenodd" clip-rule="evenodd" d="M14.1665 10.4997C14.1665 9.5792 14.9127 8.83301 15.8332 8.83301C16.7536 8.83301 17.4998 9.5792 17.4998 10.4997C17.4998 11.4201 16.7536 12.1663 15.8332 12.1663C14.9127 12.1663 14.1665 11.4201 14.1665 10.4997Z" fill="black"></path>
    <path fill-rule="evenodd" clip-rule="evenodd" d="M2.5 10.4997C2.5 9.5792 3.24619 8.83301 4.16667 8.83301C5.08714 8.83301 5.83333 9.5792 5.83333 10.4997C5.83333 11.4201 5.08714 12.1663 4.16667 12.1663C3.24619 12.1663 2.5 11.4201 2.5 10.4997Z" fill="black"></path>
  </symbol>

  <!-- eye-password (show password) -->
  <symbol id="eye-password" fill="none" viewBox="0 0 20 20" xmlns="http://www.w3.org/2000/svg">
    <path d="M.833 10S4.167 3.333 10 3.333c5.834 0 9.167 6.667 9.167 6.667S15.833 16.667 10 16.667.833 10 .833 10z" stroke="#999" stroke-width="1.5" stroke-linecap="round" stroke-linejoin="round"/>
    <path d="M10 12.5a2.5 2.5 0 1 0 0-5 2.5 2.5 0 0 0 0 5z" stroke="#999" stroke-width="1.5" stroke-linecap="round" stroke-linejoin="round"/>
  </symbol>

  <symbol stroke="none" xmlns="http://www.w3.org/2000/svg" viewBox="0 0 17 17" id="users">
    <g clip-path="url(#clip0_2438_2850)">
      <path fill-rule="evenodd" clip-rule="evenodd" d="M1.47631 10.8093C2.10143 10.1842 2.94928 9.83301 3.83333 9.83301H9.16667C10.0507 9.83301 10.8986 10.1842 11.5237 10.8093C12.1488 11.4344 12.5 12.2823 12.5 13.1663V14.4997C12.5 14.8679 12.2015 15.1663 11.8333 15.1663C11.4651 15.1663 11.1667 14.8679 11.1667 14.4997V13.1663C11.1667 12.6359 10.956 12.1272 10.5809 11.7521C10.2058 11.3771 9.6971 11.1663 9.16667 11.1663H3.83333C3.3029 11.1663 2.79419 11.3771 2.41912 11.7521C2.04405 12.1272 1.83333 12.6359 1.83333 13.1663V14.4997C1.83333 14.8679 1.53486 15.1663 1.16667 15.1663C0.798477 15.1663 0.5 14.8679 0.5 14.4997V13.1663C0.5 12.2823 0.85119 11.4344 1.47631 10.8093Z"></path>
      <path fill-rule="evenodd" clip-rule="evenodd" d="M6.50008 3.16634C5.39551 3.16634 4.50008 4.06177 4.50008 5.16634C4.50008 6.27091 5.39551 7.16634 6.50008 7.16634C7.60465 7.16634 8.50008 6.27091 8.50008 5.16634C8.50008 4.06177 7.60465 3.16634 6.50008 3.16634ZM3.16675 5.16634C3.16675 3.32539 4.65913 1.83301 6.50008 1.83301C8.34103 1.83301 9.83341 3.32539 9.83341 5.16634C9.83341 7.00729 8.34103 8.49967 6.50008 8.49967C4.65913 8.49967 3.16675 7.00729 3.16675 5.16634Z"></path>
      <path fill-rule="evenodd" clip-rule="evenodd" d="M13.1878 10.4201C13.2799 10.0636 13.6435 9.84921 14 9.94125C14.7151 10.1259 15.3486 10.5428 15.8011 11.1265C16.2536 11.7102 16.4994 12.4277 16.5 13.1663L16.5 14.5001C16.5 14.8683 16.2015 15.1668 15.8333 15.1668C15.4651 15.1668 15.1667 14.8683 15.1667 14.5001L15.1667 13.1672C15.1667 13.1672 15.1667 13.1673 15.1667 13.1672C15.1663 12.7242 15.0188 12.2936 14.7473 11.9434C14.4759 11.5932 14.0957 11.343 13.6667 11.2322C13.3102 11.1402 13.0958 10.7766 13.1878 10.4201Z"></path>
      <path fill-rule="evenodd" clip-rule="evenodd" d="M10.5207 2.42139C10.6121 2.06471 10.9753 1.84959 11.3319 1.94092C12.049 2.1245 12.6845 2.5415 13.1383 3.12617C13.5921 3.71085 13.8385 4.42994 13.8385 5.17008C13.8385 5.91022 13.5921 6.62932 13.1383 7.21399C12.6845 7.79866 12.049 8.21566 11.3319 8.39925C10.9753 8.49057 10.6121 8.27546 10.5207 7.91877C10.4294 7.56209 10.6445 7.19891 11.0012 7.10758C11.4314 6.99743 11.8127 6.74723 12.085 6.39643C12.3573 6.04562 12.5051 5.61417 12.5051 5.17008C12.5051 4.726 12.3573 4.29454 12.085 3.94374C11.8127 3.59293 11.4314 3.34273 11.0012 3.23258C10.6445 3.14126 10.4294 2.77807 10.5207 2.42139Z"></path>
    </g>
    <defs>
      <clipPath id="clip0_2438_2850">
        <rect width="16" height="16" fill="white" transform="translate(0.5 0.5)"></rect>
      </clipPath>
    </defs>
  </symbol>

  <symbol stroke="none" xmlns="http://www.w3.org/2000/svg" viewBox="0 0 17 17" id="calendars">
    <path fill-rule="evenodd" clip-rule="evenodd" d="M3.83333 3.66699C3.3731 3.66699 3 4.04009 3 4.50033V13.8337C3 14.2939 3.3731 14.667 3.83333 14.667H13.1667C13.6269 14.667 14 14.2939 14 13.8337V4.50033C14 4.04009 13.6269 3.66699 13.1667 3.66699H3.83333ZM2 4.50033C2 3.4878 2.82081 2.66699 3.83333 2.66699H13.1667C14.1792 2.66699 15 3.4878 15 4.50033V13.8337C15 14.8462 14.1792 15.667 13.1667 15.667H3.83333C2.82081 15.667 2 14.8462 2 13.8337V4.50033Z"></path>
    <path fill-rule="evenodd" clip-rule="evenodd" d="M11.1667 1.33301C11.4429 1.33301 11.6667 1.55687 11.6667 1.83301V4.49967C11.6667 4.77582 11.4429 4.99967 11.1667 4.99967C10.8906 4.99967 10.6667 4.77582 10.6667 4.49967V1.83301C10.6667 1.55687 10.8906 1.33301 11.1667 1.33301Z"></path>
    <path fill-rule="evenodd" clip-rule="evenodd" d="M5.83325 1.33301C6.10939 1.33301 6.33325 1.55687 6.33325 1.83301V4.49967C6.33325 4.77582 6.10939 4.99967 5.83325 4.99967C5.55711 4.99967 5.33325 4.77582 5.33325 4.49967V1.83301C5.33325 1.55687 5.55711 1.33301 5.83325 1.33301Z"></path>
    <path fill-rule="evenodd" clip-rule="evenodd" d="M2 7.16699C2 6.89085 2.22386 6.66699 2.5 6.66699H14.5C14.7761 6.66699 15 6.89085 15 7.16699C15 7.44313 14.7761 7.66699 14.5 7.66699H2.5C2.22386 7.66699 2 7.44313 2 7.16699Z"></path>
  </symbol>

  <symbol fill="none" xmlns="http://www.w3.org/2000/svg" viewBox="0 0 32 23" id="hamburger">
    <path d="M4 12.5H28" stroke="white" stroke-width="2" stroke-linecap="round" stroke-linejoin="round"></path>
    <path d="M4 4.5H28" stroke="white" stroke-width="2" stroke-linecap="round" stroke-linejoin="round"></path>
    <path d="M4 20.5H28" stroke="white" stroke-width="2" stroke-linecap="round" stroke-linejoin="round"></path>
  </symbol>

  <symbol fill="none" xmlns="http://www.w3.org/2000/svg" viewBox="0 0 32 32" id="progress-bar">
    <path d="M32 16C32 24.8366 24.8366 32 16 32C7.16344 32 0 24.8366 0 16C0 7.16344 7.16344 0 16 0C24.8366 0 32 7.16344 32 16ZM1.36134 16C1.36134 24.0847 7.91529 30.6387 16 30.6387C24.0847 30.6387 30.6387 24.0847 30.6387 16C30.6387 7.91529 24.0847 1.36134 16 1.36134C7.91529 1.36134 1.36134 7.91529 1.36134 16Z" fill="#F2F2F2"></path>
    <path d="M18.0234 0.128459C20.9505 0.50162 23.7173 1.67695 26.0181 3.52451C28.3189 5.37207 30.0639 7.81989 31.0603 10.5973C32.0566 13.3748 32.2655 16.3737 31.6639 19.2624C31.0622 22.1512 29.6734 24.8173 27.651 26.966L26.7011 26.072C28.5586 24.0984 29.8342 21.6497 30.3868 18.9964C30.9394 16.3432 30.7475 13.5888 29.8324 11.0378C28.9173 8.48682 27.3145 6.23857 25.2013 4.54164C23.0881 2.84471 20.5469 1.7652 17.8584 1.42247L18.0234 0.128459Z" fill="#FB6B56"></path>
  </symbol>

  <symbol fill="none" xmlns="http://www.w3.org/2000/svg" viewBox="0 0 24 24" id="arrow-left">
    <path d="M19 12L5 12" stroke="#111111" stroke-width="2" stroke-linecap="round" stroke-linejoin="round"></path>
    <path d="M12 19L5 12L12 5" stroke="#111111" stroke-width="2" stroke-linecap="round" stroke-linejoin="round"></path>
  </symbol>

  <!-- add-blue -->
  <symbol id="add-blue" fill="none" viewBox="0 0 24 24" xmlns="http://www.w3.org/2000/svg">
    <path d="M12 22c5.523 0 10-4.477 10-10S17.523 2 12 2 2 6.477 2 12s4.477 10 10 10zM12 8v8M8 12h8" stroke="#5684FB" stroke-width="1.5" stroke-linecap="round" stroke-linejoin="round"/>
  </symbol>

  <!-- arrow-simple -->
  <symbol id="arrow-simple" fill="none" viewBox="0 0 7 14" xmlns="http://www.w3.org/2000/svg">
    <path d="M1 12.5L6 7 1 1.5" stroke="#000" stroke-width="2" stroke-linecap="round" stroke-linejoin="round"/>
  </symbol>

  <symbol id="checkbox" fill="none" viewBox="0 0 24 24" xmlns="http://www.w3.org/2000/svg">
    <rect width="24" height="24" rx="6" fill="#5684FB"/>
    <path d="M7 12.444L10.385 16 18 8" stroke="#fff" stroke-width="2" stroke-linecap="round" stroke-linejoin="round"/>
  </symbol>

  <symbol id="thin-tick" fill="none" viewBox="0 0 13 9" xmlns="http://www.w3.org/2000/svg">
    <path fill-rule="evenodd" clip-rule="evenodd" d="M12.305.362c.26.26.26.682 0 .943L4.97 8.638a.667.667 0 0 1-.942 0L.695 5.305a.667.667 0 0 1 .943-.943L4.5 7.224 11.362.362c.26-.26.682-.26.943 0z" fill="#666"/>
  </symbol>

  <symbol fill="none" xmlns="http://www.w3.org/2000/svg" viewBox="0 0 48 48" id="delete">
    <rect width="48" height="48" rx="12" fill="#FF3B30" fill-opacity="0.12"></rect>
    <path fill-rule="evenodd" clip-rule="evenodd" d="M15.666 19C15.666 18.5397 16.0391 18.1666 16.4993 18.1666H31.4993C31.9596 18.1666 32.3327 18.5397 32.3327 19C32.3327 19.4602 31.9596 19.8333 31.4993 19.8333H16.4993C16.0391 19.8333 15.666 19.4602 15.666 19Z" fill="#FF3B30"></path>
    <path fill-rule="evenodd" clip-rule="evenodd" d="M22.334 16.5C22.113 16.5 21.901 16.5878 21.7447 16.7441C21.5884 16.9004 21.5007 17.1124 21.5007 17.3334V18.1667H26.5007V17.3334C26.5007 17.1124 26.4129 16.9004 26.2566 16.7441C26.1003 16.5878 25.8883 16.5 25.6673 16.5H22.334ZM28.1673 18.1667V17.3334C28.1673 16.6703 27.9039 16.0344 27.4351 15.5656C26.9662 15.0968 26.3304 14.8334 25.6673 14.8334H22.334C21.6709 14.8334 21.0351 15.0968 20.5662 15.5656C20.0974 16.0344 19.834 16.6703 19.834 17.3334V18.1667H18.1673C17.7071 18.1667 17.334 18.5398 17.334 19V30.6667C17.334 31.3297 17.5974 31.9656 18.0662 32.4345C18.5351 32.9033 19.1709 33.1667 19.834 33.1667H28.1673C28.8304 33.1667 29.4662 32.9033 29.9351 32.4345C30.4039 31.9656 30.6673 31.3297 30.6673 30.6667V19C30.6673 18.5398 30.2942 18.1667 29.834 18.1667H28.1673ZM19.0007 19.8334V30.6667C19.0007 30.8877 19.0884 31.0997 19.2447 31.256C19.401 31.4122 19.613 31.5 19.834 31.5H28.1673C28.3883 31.5 28.6003 31.4122 28.7566 31.256C28.9129 31.0997 29.0007 30.8877 29.0007 30.6667V19.8334H19.0007Z" fill="#FF3B30"></path>
    <path fill-rule="evenodd" clip-rule="evenodd" d="M22.3333 22.3334C22.7936 22.3334 23.1667 22.7065 23.1667 23.1667V28.1667C23.1667 28.6269 22.7936 29 22.3333 29C21.8731 29 21.5 28.6269 21.5 28.1667V23.1667C21.5 22.7065 21.8731 22.3334 22.3333 22.3334Z" fill="#FF3B30"></path>
    <path fill-rule="evenodd" clip-rule="evenodd" d="M25.6673 22.3334C26.1276 22.3334 26.5007 22.7065 26.5007 23.1667V28.1667C26.5007 28.6269 26.1276 29 25.6673 29C25.2071 29 24.834 28.6269 24.834 28.1667V23.1667C24.834 22.7065 25.2071 22.3334 25.6673 22.3334Z" fill="#FF3B30"></path>
  </symbol>

  <symbol fill="none" xmlns="http://www.w3.org/2000/svg" viewBox="0 0 48 48" id="edit">
    <rect width="48" height="48" rx="12" fill="#F4F4F4"></rect>
    <path fill-rule="evenodd" clip-rule="evenodd" d="M16.5662 17.2322C17.0351 16.7634 17.6709 16.5 18.334 16.5H24.1673C24.6276 16.5 25.0007 16.8731 25.0007 17.3333C25.0007 17.7936 24.6276 18.1667 24.1673 18.1667H18.334C18.113 18.1667 17.901 18.2545 17.7447 18.4107C17.5884 18.567 17.5007 18.779 17.5007 19V30.6667C17.5007 30.8877 17.5884 31.0996 17.7447 31.2559C17.901 31.4122 18.113 31.5 18.334 31.5H30.0007C30.2217 31.5 30.4336 31.4122 30.5899 31.2559C30.7462 31.0996 30.834 30.8877 30.834 30.6667V24.8333C30.834 24.3731 31.2071 24 31.6673 24C32.1276 24 32.5007 24.3731 32.5007 24.8333V30.6667C32.5007 31.3297 32.2373 31.9656 31.7684 32.4344C31.2996 32.9033 30.6637 33.1667 30.0007 33.1667H18.334C17.6709 33.1667 17.0351 32.9033 16.5662 32.4344C16.0974 31.9656 15.834 31.3297 15.834 30.6667V19C15.834 18.337 16.0974 17.7011 16.5662 17.2322Z" fill="black"></path>
    <path fill-rule="evenodd" clip-rule="evenodd" d="M31.6673 16.3988C31.4195 16.3988 31.1818 16.4973 31.0066 16.6725L23.2531 24.426L22.8126 26.188L24.5746 25.7475L32.3281 17.994C32.5033 17.8188 32.6018 17.5811 32.6018 17.3333C32.6018 17.0855 32.5033 16.8478 32.3281 16.6725C32.1528 16.4973 31.9152 16.3988 31.6673 16.3988ZM29.8281 15.494C30.3159 15.0062 30.9775 14.7322 31.6673 14.7322C32.3572 14.7322 33.0188 15.0062 33.5066 15.494C33.9944 15.9818 34.2684 16.6434 34.2684 17.3333C34.2684 18.0231 33.9944 18.6847 33.5066 19.1725L25.5899 27.0892C25.4831 27.196 25.3493 27.2718 25.2028 27.3084L21.8694 28.1417C21.5855 28.2127 21.2851 28.1295 21.0781 27.9225C20.8711 27.7156 20.7879 27.4151 20.8589 27.1312L21.6922 23.7978C21.7288 23.6513 21.8046 23.5175 21.9114 23.4107L29.8281 15.494Z" fill="black"></path>
  </symbol>

  <!-- night -->
  <symbol id="night" fill="none" viewBox="0 0 96 96" xmlns="http://www.w3.org/2000/svg">
    <circle cx="48" cy="48" r="48" fill="#FF3B30"/>
    <path d="M59.855 61.834a18.982 18.982 0 0 1-6.397 1.103c-10.378 0-18.823-8.336-18.823-18.581 0-4.49 1.65-8.828 4.644-12.213a.345.345 0 0 0 .026-.427.357.357 0 0 0-.412-.13C31.182 34.335 26 41.623 26 49.72 26 60.35 34.761 69 45.53 69a19.642 19.642 0 0 0 14.712-6.608.345.345 0 0 0 .025-.427.357.357 0 0 0-.412-.13zM46.726 35.129l-.725 4.17a.347.347 0 0 0 .14.34.357.357 0 0 0 .373.027l3.792-1.968 3.793 1.968a.357.357 0 0 0 .372-.026.348.348 0 0 0 .14-.341l-.723-4.17 3.069-2.953a.345.345 0 0 0 .089-.357.352.352 0 0 0-.285-.238l-4.24-.609-1.897-3.793c-.12-.239-.515-.239-.635 0l-1.895 3.793-4.24.609a.352.352 0 0 0-.286.237.345.345 0 0 0 .09.358l3.068 2.953z" fill="#fff"/>
    <path d="M43.921 50.14l-.586 3.375a.347.347 0 0 0 .14.341c.11.079.253.089.373.027l3.07-1.593 3.07 1.593a.353.353 0 0 0 .372-.027.348.348 0 0 0 .141-.34l-.586-3.375 2.484-2.39a.345.345 0 0 0 .09-.358.351.351 0 0 0-.285-.237l-3.433-.493-1.535-3.07c-.12-.239-.515-.239-.634 0l-1.535 3.07-3.433.493a.352.352 0 0 0-.285.237.345.345 0 0 0 .09.358l2.482 2.39zM69.983 45.636a.351.351 0 0 0-.285-.237l-4.477-.642-2.003-4.006c-.12-.238-.514-.238-.634 0l-2.003 4.006-4.478.642a.35.35 0 0 0-.285.237.344.344 0 0 0 .09.358l3.24 3.118-.765 4.403a.346.346 0 0 0 .14.34.357.357 0 0 0 .373.028l4.005-2.079 4.005 2.079a.353.353 0 0 0 .372-.027.347.347 0 0 0 .141-.341l-.765-4.403 3.24-3.118a.348.348 0 0 0 .089-.358z" fill="#fff"/>
  </symbol>

<!-- close -->
  <symbol id="close" fill="none" viewBox="0 0 16 17" xmlns="http://www.w3.org/2000/svg">
    <path fill-rule="evenodd" clip-rule="evenodd" d="M12.47 4.03c.26.26.26.682 0 .942l-8 8a.667.667 0 0 1-.943-.943l8-8c.26-.26.683-.26.943 0z" fill="#111"/>
    <path fill-rule="evenodd" clip-rule="evenodd" d="M3.527 4.03c.26-.261.683-.261.943 0l8 8a.667.667 0 1 1-.943.942l-8-8a.667.667 0 0 1 0-.943z" fill="#111"/>
  </symbol>

<!-- close-white -->
  <symbol id="close-white" fill="none" viewBox="0 0 26 23" xmlns="http://www.w3.org/2000/svg">
    <path d="M5 3.5l15.556 15.556M5 19.5L20.556 3.944" stroke="#fff" stroke-width="2" stroke-linecap="round" stroke-linejoin="round"/>
  </symbol>

<!-- facebook-circle -->
  <symbol id="facebook-circle" fill="none" viewBox="0 0 39 39" xmlns="http://www.w3.org/2000/svg">
    <rect opacity=".15" x=".75" y=".75" width="37.5" height="37.5" rx="18.75" stroke="#0A142F" stroke-width="1.5"/>
    <path fill-rule="evenodd" clip-rule="evenodd" d="M17.55 27v-7.5H16v-2.585h1.55v-1.552c0-2.11.876-3.363 3.364-3.363h2.071v2.585h-1.294c-.969 0-1.033.361-1.033 1.035l-.003 1.294H23l-.274 2.585h-2.071V27H17.55z" fill="#0A142F"/>
  </symbol>

<!-- linkedin-circle -->
  <symbol id="linkedin-circle" fill="none" viewBox="0 0 39 39" xmlns="http://www.w3.org/2000/svg">
    <rect opacity=".15" x=".75" y=".75" width="37.5" height="37.5" rx="18.75" stroke="#0A142F" stroke-width="1.5"/>
    <path fill-rule="evenodd" clip-rule="evenodd" d="M16 26h-3v-9h3v9zM14.491 15h-.017C13.579 15 13 14.333 13 13.5c0-.852.596-1.5 1.509-1.5.912 0 1.474.648 1.491 1.5 0 .833-.58 1.5-1.509 1.5zM27 26h-2.948v-4.705c0-1.181-.427-1.988-1.494-1.988-.814 0-1.3.544-1.512 1.069-.078.188-.098.45-.098.713V26H18s.039-7.968 0-8.793h2.948v1.245C21.34 17.853 22.041 17 23.606 17 25.546 17 27 18.257 27 20.958V26z" fill="#0A142F"/>
  </symbol>

<!-- twitter-circle -->
  <symbol id="twitter-circle" fill="none" viewBox="0 0 39 39" xmlns="http://www.w3.org/2000/svg">
    <rect opacity=".15" x=".75" y=".75" width="37.5" height="37.5" rx="18.75" stroke="#0A142F" stroke-width="1.5"/>
    <path fill-rule="evenodd" clip-rule="evenodd" d="M19.312 16.926l.028.476-.47-.058c-1.709-.224-3.202-.981-4.47-2.253l-.62-.631-.16.466c-.338 1.039-.122 2.136.582 2.874.376.408.291.466-.357.223-.225-.077-.422-.136-.441-.106-.066.067.16.951.338 1.3.244.486.742.962 1.287 1.244l.46.223-.545.01c-.526 0-.544.01-.488.213.188.631.93 1.301 1.756 1.593l.583.203-.507.311c-.752.447-1.635.7-2.518.719-.422.01-.77.048-.77.077 0 .098 1.146.641 1.813.855 2 .631 4.377.36 6.162-.719 1.268-.767 2.536-2.291 3.128-3.767.32-.787.638-2.224.638-2.913 0-.447.029-.505.555-1.039.31-.31.6-.65.657-.748.094-.184.085-.184-.394-.019-.799.291-.911.252-.517-.185.291-.31.639-.873.639-1.038 0-.03-.141.019-.3.106-.17.098-.546.243-.827.33l-.508.166-.46-.32c-.253-.176-.61-.37-.798-.428-.48-.136-1.212-.117-1.644.039-1.174.437-1.916 1.563-1.832 2.796z" fill="#0A142F"/>
  </symbol>

</svg>


