<svg width="17" height="17" viewBox="0 0 17 17" fill="none" xmlns="http://www.w3.org/2000/svg">
  <g clip-path="url(#clip0_2438_2850)">
    <path fill-rule="evenodd" clip-rule="evenodd" d="M1.47631 10.8093C2.10143 10.1842 2.94928 9.83301 3.83333 9.83301H9.16667C10.0507 9.83301 10.8986 10.1842 11.5237 10.8093C12.1488 11.4344 12.5 12.2823 12.5 13.1663V14.4997C12.5 14.8679 12.2015 15.1663 11.8333 15.1663C11.4651 15.1663 11.1667 14.8679 11.1667 14.4997V13.1663C11.1667 12.6359 10.956 12.1272 10.5809 11.7521C10.2058 11.3771 9.6971 11.1663 9.16667 11.1663H3.83333C3.3029 11.1663 2.79419 11.3771 2.41912 11.7521C2.04405 12.1272 1.83333 12.6359 1.83333 13.1663V14.4997C1.83333 14.8679 1.53486 15.1663 1.16667 15.1663C0.798477 15.1663 0.5 14.8679 0.5 14.4997V13.1663C0.5 12.2823 0.85119 11.4344 1.47631 10.8093Z" fill="#333333"/>
    <path fill-rule="evenodd" clip-rule="evenodd" d="M6.50008 3.16634C5.39551 3.16634 4.50008 4.06177 4.50008 5.16634C4.50008 6.27091 5.39551 7.16634 6.50008 7.16634C7.60465 7.16634 8.50008 6.27091 8.50008 5.16634C8.50008 4.06177 7.60465 3.16634 6.50008 3.16634ZM3.16675 5.16634C3.16675 3.32539 4.65913 1.83301 6.50008 1.83301C8.34103 1.83301 9.83341 3.32539 9.83341 5.16634C9.83341 7.00729 8.34103 8.49967 6.50008 8.49967C4.65913 8.49967 3.16675 7.00729 3.16675 5.16634Z" fill="#333333"/>
    <path fill-rule="evenodd" clip-rule="evenodd" d="M13.1878 10.4201C13.2799 10.0636 13.6435 9.84921 14 9.94125C14.7151 10.1259 15.3486 10.5428 15.8011 11.1265C16.2536 11.7102 16.4994 12.4277 16.5 13.1663L16.5 14.5001C16.5 14.8683 16.2015 15.1668 15.8333 15.1668C15.4651 15.1668 15.1667 14.8683 15.1667 14.5001L15.1667 13.1672C15.1667 13.1672 15.1667 13.1673 15.1667 13.1672C15.1663 12.7242 15.0188 12.2936 14.7473 11.9434C14.4759 11.5932 14.0957 11.343 13.6667 11.2322C13.3102 11.1402 13.0958 10.7766 13.1878 10.4201Z" fill="#333333"/>
    <path fill-rule="evenodd" clip-rule="evenodd" d="M10.5207 2.42139C10.6121 2.06471 10.9753 1.84959 11.3319 1.94092C12.049 2.1245 12.6845 2.5415 13.1383 3.12617C13.5921 3.71085 13.8385 4.42994 13.8385 5.17008C13.8385 5.91022 13.5921 6.62932 13.1383 7.21399C12.6845 7.79866 12.049 8.21566 11.3319 8.39925C10.9753 8.49057 10.6121 8.27546 10.5207 7.91877C10.4294 7.56209 10.6445 7.19891 11.0012 7.10758C11.4314 6.99743 11.8127 6.74723 12.085 6.39643C12.3573 6.04562 12.5051 5.61417 12.5051 5.17008C12.5051 4.726 12.3573 4.29454 12.085 3.94374C11.8127 3.59293 11.4314 3.34273 11.0012 3.23258C10.6445 3.14126 10.4294 2.77807 10.5207 2.42139Z" fill="#333333"/>
  </g>
  <defs>
    <clipPath id="clip0_2438_2850">
      <rect width="16" height="16" fill="white" transform="translate(0.5 0.5)"/>
    </clipPath>
  </defs>
</svg>
